<svg width="23" height="23" viewBox="0 0 23 23" fill="none" xmlns="http://www.w3.org/2000/svg">
<path d="M19.6857 22.2983C20.3533 22.2968 20.993 22.0309 21.465 21.5589C21.937 21.0869 22.2029 20.4472 22.2044 19.7796L22.2044 5.53377C22.2044 5.20301 22.1393 4.8755 22.0127 4.56992C21.8861 4.26434 21.7006 3.98668 21.4667 3.7528C20.9944 3.28046 20.3537 3.0151 19.6857 3.0151C19.0177 3.0151 18.3771 3.28046 17.9048 3.7528C17.4324 4.22514 17.1671 4.86578 17.1671 5.53377L17.1671 13.6995L4.37144 0.903866C3.89916 0.431587 3.25861 0.166261 2.59071 0.166262C1.9228 0.166261 1.28226 0.431587 0.809976 0.903866C0.337697 1.37615 0.0723715 2.01669 0.0723722 2.6846C0.0723715 3.3525 0.337697 3.99305 0.809976 4.46533L13.6056 17.261L5.43988 17.261C5.10912 17.261 4.7816 17.3261 4.47602 17.4527C4.17045 17.5793 3.89279 17.7648 3.65891 17.9987C3.42503 18.2325 3.23951 18.5102 3.11293 18.8158C2.98636 19.1213 2.92121 19.4489 2.92121 19.7796C2.92121 20.1104 2.98636 20.4379 3.11293 20.7435C3.23951 21.0491 3.42503 21.3267 3.65891 21.5606C3.89279 21.7945 4.17045 21.98 4.47603 22.1066C4.7816 22.2331 5.10912 22.2983 5.43988 22.2983L19.6857 22.2983Z" fill="#6B1A3B"/>
</svg>
