<svg width="46" height="46" viewBox="0 0 46 46" fill="none" xmlns="http://www.w3.org/2000/svg">
<path d="M40.8889 40.8889H5.11111V5.11111H40.8889M40.8889 0H5.11111C3.75556 0 2.45553 0.53849 1.49701 1.49701C0.53849 2.45553 0 3.75556 0 5.11111V40.8889C0 42.2444 0.53849 43.5445 1.49701 44.503C2.45553 45.4615 3.75556 46 5.11111 46H40.8889C42.2444 46 43.5445 45.4615 44.503 44.503C45.4615 43.5445 46 42.2444 46 40.8889V5.11111C46 3.75556 45.4615 2.45553 44.503 1.49701C43.5445 0.53849 42.2444 0 40.8889 0ZM34.5 33.8611C34.5 30.0278 26.8333 28.1111 23 28.1111C19.1667 28.1111 11.5 30.0278 11.5 33.8611V35.7778H34.5M23 23.6389C24.525 23.6389 25.9875 23.0331 27.0659 21.9548C28.1442 20.8764 28.75 19.4139 28.75 17.8889C28.75 16.3639 28.1442 14.9014 27.0659 13.823C25.9875 12.7447 24.525 12.1389 23 12.1389C21.475 12.1389 20.0125 12.7447 18.9341 13.823C17.8558 14.9014 17.25 16.3639 17.25 17.8889C17.25 19.4139 17.8558 20.8764 18.9341 21.9548C20.0125 23.0331 21.475 23.6389 23 23.6389Z" fill="white"/>
</svg>
