<svg width="105" height="105" viewBox="0 0 105 105" fill="none" xmlns="http://www.w3.org/2000/svg">
<path d="M52.5 0C66.4239 0 79.7774 5.53123 89.6231 15.3769C99.4688 25.2226 105 38.5761 105 52.5C105 66.4239 99.4688 79.7774 89.6231 89.6231C79.7774 99.4688 66.4239 105 52.5 105C38.5761 105 25.2226 99.4688 15.3769 89.6231C5.53123 79.7774 0 66.4239 0 52.5C0 38.5761 5.53123 25.2226 15.3769 15.3769C25.2226 5.53123 38.5761 0 52.5 0ZM52.5 22.5C51.5478 22.4991 50.6059 22.6969 49.7344 23.0807C48.8629 23.4644 48.0811 24.0257 47.4388 24.7287C46.7965 25.4317 46.3079 26.2609 46.0042 27.1634C45.7005 28.0658 45.5884 29.0217 45.675 29.97L48.4125 60.015C48.5186 61.0251 48.995 61.9602 49.7498 62.6398C50.5046 63.3194 51.4843 63.6955 52.5 63.6955C53.5157 63.6955 54.4954 63.3194 55.2502 62.6398C56.005 61.9602 56.4814 61.0251 56.5875 60.015L59.3175 29.97C59.404 29.0224 59.2921 28.0671 58.9889 27.1651C58.6856 26.2632 58.1977 25.4343 57.5562 24.7314C56.9147 24.0286 56.1338 23.4671 55.2632 23.0829C54.3927 22.6987 53.4516 22.5002 52.5 22.5ZM52.5 82.5C54.0913 82.5 55.6174 81.8679 56.7426 80.7426C57.8679 79.6174 58.5 78.0913 58.5 76.5C58.5 74.9087 57.8679 73.3826 56.7426 72.2574C55.6174 71.1321 54.0913 70.5 52.5 70.5C50.9087 70.5 49.3826 71.1321 48.2574 72.2574C47.1321 73.3826 46.5 74.9087 46.5 76.5C46.5 78.0913 47.1321 79.6174 48.2574 80.7426C49.3826 81.8679 50.9087 82.5 52.5 82.5Z" fill="#F0E8EB"/>
</svg>
