<svg width="36" height="35" viewBox="0 0 36 35" fill="none" xmlns="http://www.w3.org/2000/svg">
<path d="M35.1596 14.0726H33.75V14H18V21H27.8901C26.4473 25.0749 22.5701 28 18 28C12.2014 28 7.5 23.2986 7.5 17.5C7.5 11.7014 12.2014 7 18 7C20.6766 7 23.1117 8.00975 24.9659 9.65912L29.9158 4.70925C26.7903 1.79638 22.6095 0 18 0C8.33562 0 0.5 7.83562 0.5 17.5C0.5 27.1644 8.33562 35 18 35C27.6644 35 35.5 27.1644 35.5 17.5C35.5 16.3266 35.3792 15.1813 35.1596 14.0726Z" fill="#FFC107"/>
<path d="M2.51776 9.35462L8.26739 13.5712C9.82314 9.7195 13.5909 7 18 7C20.6766 7 23.1118 8.00975 24.9659 9.65912L29.9158 4.70925C26.7903 1.79638 22.6095 0 18 0C11.2783 0 5.44901 3.79487 2.51776 9.35462Z" fill="#FF3D00"/>
<path d="M18 35C22.5203 35 26.6275 33.2701 29.7329 30.457L24.3167 25.8737C22.5009 27.2554 20.2817 28.0024 18 28C13.4483 28 9.5834 25.0976 8.1274 21.0472L2.42065 25.4441C5.3169 31.1115 11.1987 35 18 35Z" fill="#4CAF50"/>
<path d="M35.1596 14.0726H33.75V14H18V21H27.8901C27.1999 22.9394 25.9567 24.634 24.314 25.8746L24.3166 25.8729L29.7329 30.4561C29.3496 30.8044 35.5 26.25 35.5 17.5C35.5 16.3266 35.3792 15.1813 35.1596 14.0726Z" fill="#1976D2"/>
</svg>
