<svg width="265" height="244" viewBox="0 0 265 244" fill="none" xmlns="http://www.w3.org/2000/svg">
<rect x="19.9133" y="52.5625" width="153.179" height="153.179" rx="17" transform="rotate(-7.3787 19.9133 52.5625)" fill="#F0D9E3"/>
<rect x="113.353" y="25.2312" width="111.821" height="110.289" fill="white"/>
<path d="M117.437 119.862C117.437 102.842 151.477 93.481 168.497 93.481C185.517 93.481 219.557 102.842 219.557 119.862V128.372H117.437M194.027 51.7823C194.027 58.5532 191.337 65.0468 186.549 69.8346C181.762 74.6224 175.268 77.3121 168.497 77.3121C161.726 77.3121 155.232 74.6224 150.445 69.8346C145.657 65.0468 142.967 58.5532 142.967 51.7823C142.967 45.0113 145.657 38.5177 150.445 33.7299C155.232 28.9421 161.726 26.2524 168.497 26.2524C175.268 26.2524 181.762 28.9421 186.549 33.7299C191.337 38.5177 194.027 45.0113 194.027 51.7823ZM91.9075 17.7424V136.882C91.9075 141.396 93.7006 145.725 96.8925 148.917C100.084 152.109 104.413 153.902 108.927 153.902H228.067C232.581 153.902 236.91 152.109 240.102 148.917C243.293 145.725 245.087 141.396 245.087 136.882V17.7424C245.087 13.2285 243.293 8.8994 240.102 5.70755C236.91 2.5157 232.581 0.722534 228.067 0.722534H108.927C104.413 0.722534 100.084 2.5157 96.8925 5.70755C93.7006 8.8994 91.9075 13.2285 91.9075 17.7424Z" fill="#6B1A3B"/>
<path d="M245.006 37H225V56.9937H245.006V77H265V56.9937V37L245.006 37Z" fill="#FF2323"/>
<path d="M19.9938 244L40 244L40 224.006L19.9938 224.006L19.9938 204L-3.17787e-07 204L-2.06679e-06 224.006L-3.8147e-06 244L19.9938 244Z" fill="#FF2323"/>
</svg>
