<svg width="265" height="243" viewBox="0 0 265 243" fill="none" xmlns="http://www.w3.org/2000/svg">
<rect x="19.9133" y="51.5625" width="153.179" height="153.179" rx="17" transform="rotate(-7.3787 19.9133 51.5625)" fill="#F0D9E3"/>
<rect x="92" width="153.18" height="153.18" rx="17" transform="rotate(0.0889275 92 0)" fill="#6B1A3B"/>
<path d="M245.006 36H225V55.9937H245.006V76H265V55.9937V36L245.006 36Z" fill="#FF2323"/>
<path d="M19.9938 243L40 243L40 223.006L19.9938 223.006L19.9938 203L-3.17787e-07 203L-2.06679e-06 223.006L-3.8147e-06 243L19.9938 243Z" fill="#FF2323"/>
<path d="M205.967 49.6166C205.963 47.1157 204.969 44.7176 203.201 42.9448C201.433 41.172 199.035 40.1681 196.529 40.1519L173.302 40.0002C172.046 39.9917 170.8 40.232 169.638 40.7071C168.475 41.1822 167.419 41.8827 166.529 42.7681L134.791 74.3518C133.907 75.2315 133.206 76.2764 132.727 77.4268C132.248 78.5772 132.001 79.8105 132 81.0561C131.999 82.3018 132.244 83.5354 132.722 84.6865C133.199 85.8376 133.899 86.8835 134.781 87.7644L158.288 111.225C160.07 113.002 162.485 114 165.004 114C167.523 114 169.939 113.002 171.721 111.225L203.217 79.7927C204.1 78.911 204.801 77.8639 205.279 76.7115C205.757 75.5591 206.002 74.3239 206 73.0769L205.967 49.6166ZM186.934 63.6785C185.675 63.6785 184.466 63.1792 183.576 62.2904C182.685 61.4015 182.184 60.1961 182.184 58.9391C182.184 57.6821 182.685 56.4766 183.576 55.5878C184.466 54.699 185.675 54.1996 186.934 54.1996C188.194 54.1996 189.402 54.699 190.293 55.5878C191.184 56.4766 191.684 57.6821 191.684 58.9391C191.684 60.1961 191.184 61.4015 190.293 62.2904C189.402 63.1792 188.194 63.6785 186.934 63.6785Z" fill="white"/>
</svg>
