<svg width="265" height="243" viewBox="0 0 265 243" fill="none" xmlns="http://www.w3.org/2000/svg">
<rect x="19.9133" y="51.5625" width="153.179" height="153.179" rx="17" transform="rotate(-7.3787 19.9133 51.5625)" fill="#F0D9E3"/>
<path d="M19.9938 243L40 243L40 223.006L19.9938 223.006L19.9938 203L-3.17787e-07 203L-2.06679e-06 223.006L-3.8147e-06 243L19.9938 243Z" fill="#FF2323"/>
<rect x="92" width="153.18" height="153.18" rx="17" transform="rotate(0.0889275 92 0)" fill="#6B1A3B"/>
<path d="M245.006 37H225V56.9937H245.006V77H265V56.9937V37L245.006 37Z" fill="#FF2323"/>
<path d="M139.001 77.0022C139.001 71.0052 140.859 65.1554 144.321 60.2585C147.783 55.3616 152.678 51.6585 158.332 49.6591C163.986 47.6597 170.121 47.4624 175.892 49.0944C181.662 50.7264 186.785 54.1074 190.554 58.7718" stroke="white" stroke-width="6" stroke-linecap="round" stroke-linejoin="round"/>
<path d="M192.165 48.0037V60.892H179.277M196.999 77.0023C196.999 82.999 195.14 88.8484 191.677 93.7448C188.215 98.6412 183.32 102.344 177.666 104.343C172.013 106.342 165.878 106.539 160.108 104.907C154.337 103.275 149.215 99.8936 145.446 95.2295" stroke="white" stroke-width="6" stroke-linecap="round" stroke-linejoin="round"/>
<path d="M143.835 106.001V93.1126H156.723" stroke="white" stroke-width="6" stroke-linecap="round" stroke-linejoin="round"/>
</svg>
